<?xml version="1.0" encoding="UTF-8"?>
<!DOCTYPE svg PUBLIC "-//W3C//DTD SVG 1.1//EN" "http://www.w3.org/Graphics/SVG/1.1/DTD/svg11.dtd">
<!-- Creator: CorelDRAW -->
<svg xmlns="http://www.w3.org/2000/svg" xml:space="preserve" width="54.0642mm" height="60.0546mm" style="shape-rendering:geometricPrecision; text-rendering:geometricPrecision; image-rendering:optimizeQuality; fill-rule:evenodd; clip-rule:evenodd"
viewBox="0 0 9.1551 10.1695"
 xmlns:xlink="http://www.w3.org/1999/xlink">
 <defs>
  <style type="text/css">
   <![CDATA[
    .fil2 {fill:url(#id0)}
    .fil0 {fill:url(#id1);fill-rule:nonzero}
    .fil1 {fill:url(#id2);fill-rule:nonzero}
   ]]>
  </style>
  <linearGradient id="id0" gradientUnits="userSpaceOnUse" x1="5.76925" y1="4.58454" x2="5.76925" y2="0">
   <stop offset="0" style="stop-color:#09253F"/>
   <stop offset="1" style="stop-color:#003F72"/>
  </linearGradient>
  <linearGradient id="id1" gradientUnits="userSpaceOnUse" xlink:href="#id0" x1="2.48687" y1="6.9931" x2="2.48687" y2="1.99021">
  </linearGradient>
  <linearGradient id="id2" gradientUnits="userSpaceOnUse" x1="4.0367" y1="10.4071" x2="8.04626" y2="3.46229">
   <stop offset="0" style="stop-color:#EF9B11"/>
   <stop offset="0.541176" style="stop-color:#EF9B11"/>
   <stop offset="0.678431" style="stop-color:#FACF00"/>
   <stop offset="1" style="stop-color:#F8C300"/>
  </linearGradient>
 </defs>
 <g id="Capa_x0020_1">
  <metadata id="CorelCorpID_0Corel-Layer"/>
  <path class="fil0" d="M3.84745 5.31332l0 0.52432c-0.162022,0.0140381 -0.315882,0.024537 -0.4628,0.0315645 -0.145546,0.00704444 -0.280762,0.0105836 -0.403938,0.0105836 -0.279526,0 -0.515599,-0.0163411 -0.709389,-0.0469404 -0.193705,-0.0305993 -0.352307,-0.0763882 -0.475601,-0.133844 -0.123295,-0.0586585 -0.219665,-0.129238 -0.28889,-0.21157 -0.0681076,-0.0832125 -0.117419,-0.176094 -0.147984,-0.279407 -0.0292615,-0.102127 -0.0481765,-0.214906 -0.0540356,-0.334713 -0.00702751,-0.119722 -0.00936437,-0.247775 -0.00821287,-0.381619 -0.0011515,-0.133997 0.00118536,-0.261881 0.00821287,-0.381772 0.00585908,-0.119756 0.0247741,-0.231281 0.0540356,-0.333527 0.0305654,-0.102111 0.0798765,-0.194958 0.147984,-0.277104 0.0692252,-0.0810788 0.165595,-0.151472 0.28889,-0.209081 0.123295,-0.0586247 0.281896,-0.102161 0.475601,-0.133844 0.19379,-0.0306332 0.429863,-0.0459074 0.709389,-0.0459074 0.131491,0 0.275969,0.00475839 0.434503,0.0141566 0.158602,0.00936437 0.325348,0.0247402 0.49919,0.0446374 0.174909,0.0211333 0.351121,0.0481257 0.53067,0.0809264 0.179752,0.03297 0.355931,0.072849 0.529806,0.120992l0 -1.1486c-0.310057,-0.0739497 -0.629512,-0.131508 -0.958281,-0.171387 -0.327685,-0.0399298 -0.661246,-0.0610123 -1.00065,-0.0610123l-0.253803 0c-0.429694,0.00110069 -0.801949,0.0410644 -1.11561,0.118536 -0.313495,0.0775397 -0.575426,0.187982 -0.788148,0.330073 -0.212417,0.142074 -0.381619,0.309972 -0.507285,0.502645 -0.125564,0.192554 -0.216024,0.405242 -0.271245,0.636523 -0.0540356,0.230248 -0.0809942,0.474416 -0.0798427,0.730438l0 0.366379c-0.0011515,0.256072 0.025807,0.500308 0.0798427,0.730556 0.055221,0.231366 0.145681,0.443935 0.271245,0.636641 0.125665,0.19252 0.294867,0.360367 0.507285,0.502577 0.212722,0.142074 0.474653,0.251297 0.788148,0.329988 0.313664,0.0774211 0.685919,0.117469 1.11561,0.11857l0.253803 0c0.312275,-0.00094829 0.621858,-0.0161717 0.928901,-0.0453486l1.00228 -2.00911c-0.170675,-0.246234 -0.454553,-0.440532 -0.78261,-0.454045l-0.241001 0 -0.0760664 0 -0.794786 0 0.44595 0.828721 0.348835 0z"/>
  <path class="fil1" d="M7.31108 6.80647l-0.890038 -1.97205 -0.718736 1.61362 1.15102 0 0.457753 0.358437zm0.702463 1.61462l-0.401652 -0.916015 -2.37464 0 -1.41819 2.66442 -0.304063 0c-0.283437,-0.0121415 -0.587144,-0.657182 -0.332257,-1.29467l2.60411 -5.17491 1.26837 0 2.09985 4.43929 0 0.281879 -1.14154 0z"/>
  <polygon class="fil2" points="7.46413,0.822473 6.59077,1.19568 7.00258,1.74902 5.86643,0.548806 3.36608,0 4.92661,1.35194 4.08777,0.74219 3.42978,0.548569 5.50604,1.85392 5.52543,1.87071 4.74523,4.58454 5.94004,3.33549 5.67535,2.2463 5.90627,2.82484 7.18245,1.93902 7.45829,0.937876 7.44169,1.2661 8.06504,1.01254 8.17242,1.1021 8.17201,0.969051 7.49356,0.809891 "/>
 </g>
</svg>
