<?xml version="1.0" encoding="UTF-8"?>
<!DOCTYPE svg PUBLIC "-//W3C//DTD SVG 1.1//EN" "http://www.w3.org/Graphics/SVG/1.1/DTD/svg11.dtd">
<!-- Creator: CorelDRAW -->
<svg xmlns="http://www.w3.org/2000/svg" xml:space="preserve" width="233.426mm" height="107.87mm" style="shape-rendering:geometricPrecision; text-rendering:geometricPrecision; image-rendering:optimizeQuality; fill-rule:evenodd; clip-rule:evenodd"
viewBox="0 0 233.426 107.87"
 xmlns:xlink="http://www.w3.org/1999/xlink">
 <defs>
  <style type="text/css">
   <![CDATA[
    .fil2 {fill:white}
    .fil1 {fill:#F8C800;fill-rule:nonzero}
    .fil0 {fill:white;fill-rule:nonzero}
   ]]>
  </style>
 </defs>
 <g id="Capa_x0020_1">
  <metadata id="CorelCorpID_0Corel-Layer"/>
  <g id="_113585088">
   <path id="_105265600" class="fil0" d="M68.0354 90.5544c-1.2274,0 -2.252,-0.0327 -3.065,-0.0975 -0.8131,-0.0732 -1.4552,-0.1625 -1.9266,-0.2845 -0.4799,-0.122 -0.8293,-0.2684 -1.057,-0.4391 -0.2276,-0.1707 -0.3823,-0.3574 -0.4468,-0.5607 -0.0656,-0.2113 -0.0977,-0.4312 -0.0896,-0.6666 -0.0081,-0.1951 0.0163,-0.3985 0.0733,-0.602 0.0648,-0.1951 0.1949,-0.39 0.3983,-0.5771 0.2112,-0.1866 0.5366,-0.3494 0.9755,-0.4958 0.4389,-0.1463 1.0325,-0.2602 1.7885,-0.3414 0.7559,-0.0895 1.707,-0.1301 2.8616,-0.1301 1.504,0 2.8861,0.073 4.1378,0.2196 1.2601,0.1462 2.4308,0.3659 3.5202,0.6583l0 2.2928c-1.0894,0.3415 -2.2355,0.6015 -3.4225,0.7722 -1.187,0.1707 -2.4308,0.2519 -3.7477,0.2519zm14.9745 -9.5111c0.0083,-1.7483 -0.2517,-3.2847 -0.7804,-4.618 -0.5284,-1.3331 -1.3739,-2.4552 -2.5284,-3.3657 -1.1625,-0.9025 -2.6826,-1.5933 -4.5687,-2.0487 -1.8942,-0.4632 -4.1866,-0.6989 -6.9022,-0.6989 -0.9349,0 -1.9185,0.0243 -2.951,0.0811 -1.0325,0.0492 -2.0735,0.1297 -3.1299,0.2359 -3.8908,0.3914 -5.6415,3.3805 -5.8208,5.1117l0 3.1073c0.8455,-0.2436 1.7643,-0.4554 2.756,-0.6421 0.9835,-0.1791 2,-0.3336 3.0407,-0.4554 1.0322,-0.122 2.0485,-0.2111 3.0485,-0.2765 0.9998,-0.0568 1.9428,-0.0895 2.8129,-0.0895 1.5934,0 2.8776,0.0895 3.8293,0.2686 0.9588,0.1786 1.6823,0.4387 2.1624,0.7885 0.4791,0.3414 0.7962,0.7639 0.9669,1.2681 0.1628,0.5041 0.2522,1.0734 0.2603,1.7233 -1.1381,-0.317 -2.3738,-0.5527 -3.7071,-0.6989 -1.3332,-0.1545 -2.8127,-0.2275 -4.4388,-0.2275 -2.5282,0.0079 -4.65,0.203 -6.3736,0.5933 -1.7237,0.3819 -3.1052,0.9184 -4.1381,1.6016 -1.0321,0.6826 -1.7799,1.4714 -2.2351,2.3739 -0.4555,0.8941 -0.6752,1.8614 -0.6671,2.8941l0 0.4878c-0.0081,1.0973 0.2034,2.1295 0.6342,3.1137 0.4392,0.975 1.1708,1.8536 2.1951,2.6094 1.0242,0.7643 2.4144,1.3658 4.1706,1.8048 1.7479,0.4309 3.9345,0.6587 6.5604,0.6666 1.4878,0 2.8862,-0.0891 4.1785,-0.2684 1.2927,-0.1786 2.5203,-0.4472 3.6746,-0.813 1.1627,-0.3739 2.2845,-0.8374 3.3657,-1.4064l2.6342 1.5121 1.9509 0 0 -14.6327 0 -0.0001zm-24.9162 -10.3894c-0.6092,-0.0982 -1.2594,-0.1796 -1.9428,-0.2436 -0.6831,-0.0665 -1.3982,-0.0983 -2.1538,-0.0983 -2.1144,0 -4.0571,0.2111 -5.8375,0.6254 -1.773,0.4235 -3.4383,1.0577 -4.992,1.91l-2.6335 -1.5603 -1.9516 0 0 24.3889 7.8041 0 0 -14.8433c-0.7211,-0.5973 -1.6136,-0.7334 -2.5815,-0.6601 0.9134,-0.8363 1.6678,-1.1184 2.5815,-1.5201 1.0326,-0.4515 2.1959,-0.6013 3.3827,-0.7713 1.186,-0.1712 2.447,-0.252 3.7883,-0.252 0.4739,0 0.9404,0.0105 1.3976,0.0344l0 -1.9938 0.0071 -0.0706c0.146,-1.4094 0.9254,-2.8316 1.8815,-3.8548 0.3835,-0.4106 0.8022,-0.7706 1.2499,-1.0801l0 -0.0104zm-31.461 14.3702l0 3.6282c-1.1218,0.0974 -2.1867,0.1706 -3.2032,0.2192 -1.0079,0.049 -1.943,0.0733 -2.7966,0.0733 -1.9347,0 -3.5687,-0.1139 -4.9104,-0.3252 -1.341,-0.2113 -2.4387,-0.5284 -3.2923,-0.9267 -0.8537,-0.4062 -1.5201,-0.8943 -1.9999,-1.4633 -0.4715,-0.5773 -0.8128,-1.2196 -1.0244,-1.935 -0.2031,-0.7073 -0.3331,-1.4877 -0.3737,-2.3168 -0.0491,-0.8294 -0.0651,-1.7153 -0.057,-2.6421 -0.0081,-0.9269 0.0079,-1.813 0.057,-2.6423 0.0406,-0.8289 0.1706,-1.6013 0.3737,-2.3089 0.2116,-0.7072 0.5529,-1.3493 1.0244,-1.9183 0.4798,-0.561 1.1462,-1.0488 1.9999,-1.4471 0.8536,-0.4062 1.9513,-0.7072 3.2923,-0.9267 1.3417,-0.2116 2.9757,-0.3171 4.9104,-0.3171 0.9106,0 1.9104,0.0325 3.0083,0.0975 1.0971,0.0651 2.252,0.1707 3.455,0.3089 1.2114,0.1464 2.4308,0.3333 3.6744,0.5609 1.2441,0.2276 2.4633,0.5039 3.6666,0.8375l0 -7.9509c-2.1462,-0.5119 -4.3574,-0.9106 -6.6339,-1.1871 -2.268,-0.2763 -4.577,-0.4223 -6.9264,-0.4223l-1.7558 0c-2.9757,0.0079 -5.5527,0.2844 -7.7232,0.821 -2.1706,0.5363 -3.9836,1.3006 -5.455,2.2842 -1.4714,0.9836 -2.6422,2.1464 -3.512,3.4798 -0.87,1.3331 -1.496,2.8045 -1.8779,4.4062 -0.3743,1.5934 -0.5611,3.2841 -0.5528,5.0565l0 2.5364c-0.0083,1.7722 0.1785,3.4633 0.5528,5.0565 0.3819,1.6015 1.0079,3.0731 1.8779,4.4063 0.8698,1.3334 2.0406,2.4958 3.512,3.4794 1.4714,0.9836 3.2844,1.7398 5.455,2.2844 2.1705,0.5364 4.7475,0.8133 7.7232,0.8212l1.7558 0c2.4958,-0.0079 4.9672,-0.1463 7.4144,-0.4148 2.4469,-0.2764 4.8208,-0.6581 7.1213,-1.1461l0 -9.5528c-0.2,-2.8694 -3.0166,-6.104 -6.5849,-6.2513l-1.6679 0 -0.5271 0 -5.5018 0 3.0871 5.7375 2.4147 0 0 -0.0001zm59.0601 10.6519l7.8042 0 0 -17.5596 5.4877 0 2.0242 -6.829 -5.1275 0 -2.3844 3.3253 0 -4.7398c0,-0.5772 0.0214,-1.0899 0.0975,-1.5366 0.0781,-0.4554 0.2602,-0.8372 0.553,-1.1543 0.2929,-0.3171 0.756,-0.5526 1.3899,-0.7233 0.6259,-0.1628 1.496,-0.2442 2.5937,-0.2442 0.4959,0 0.9996,0.0162 1.5282,0.0489 0.5286,0.0408 1.0485,0.0974 1.5609,0.1707 0.5041,0.0812 0.9674,0.1868 1.3984,0.3174l0 -7.1222c-0.6667,-0.1707 -1.4228,-0.2923 -2.2601,-0.3737 -0.8372,-0.0733 -1.7071,-0.1137 -2.6178,-0.1137 -2.1866,0 -4.0486,0.2195 -5.585,0.6421 -1.5365,0.4308 -2.7803,1.065 -3.7316,1.8945 -0.9509,0.8288 -1.6422,1.8532 -2.081,3.0565 -0.4391,1.2113 -0.6584,2.6015 -0.6503,4.1624l0 26.7785 0 0.0001zm18.6325 -17.9459l0 17.9459 7.8046 0 0 -26.1047 -7.8046 8.1588zm10.9755 6.7274c-0.0079,1.6918 0.203,3.2764 0.6419,4.7479 0.4386,1.463 1.1872,2.7553 2.2357,3.8692 1.048,1.1211 2.4785,1.992 4.2837,2.6183 1.8043,0.6249 4.0736,0.951 6.7884,0.9587l1.3661 0c0.6156,0 1.2257,-0.0139 1.8316,-0.0397l3.7749 -7.5016c-0.9507,0.1459 -1.8697,0.2541 -2.7535,0.3299 -1.1297,0.0979 -2.1458,0.1385 -3.0483,0.1385 -1.4562,0 -2.6424,-0.0974 -3.5692,-0.2928 -0.9264,-0.2027 -1.6504,-0.4788 -2.1709,-0.8446 -0.5111,-0.3579 -0.8857,-0.7889 -1.1056,-1.2929 -0.2276,-0.5044 -0.3651,-1.0655 -0.4148,-1.6834 -0.0483,-0.6178 -0.0649,-1.2763 -0.0561,-1.9834 -0.0088,-0.7068 0.0078,-1.3658 0.0561,-1.9833 0.0497,-0.6178 0.1872,-1.1787 0.4148,-1.6832 0.2199,-0.5034 0.5945,-0.934 1.1056,-1.3005 0.5205,-0.3581 1.2445,-0.6432 2.1709,-0.8376 0.9268,-0.1948 2.113,-0.2923 3.5692,-0.2923 0.9025,0 1.9186,0.0404 3.0483,0.1385 1.1217,0.0967 2.3011,0.2436 3.5287,0.4552 1.2355,0.2031 2.454,0.4789 3.6663,0.8206l0 -7.268c-1.5848,-0.39 -3.2198,-0.6908 -4.8939,-0.902 -1.6841,-0.2108 -3.3988,-0.317 -5.1541,-0.317l-1.3661 0c-2.7148,0.0081 -4.9841,0.3335 -6.7884,0.9589 -1.8052,0.6264 -3.2357,1.4967 -4.2837,2.6099 -1.0485,1.122 -1.7971,2.4063 -2.2357,3.8779 -0.4389,1.4714 -0.6498,3.0555 -0.6419,4.7479l0 1.9509z"/>
   <path id="_105263872" class="fil1" d="M186.638 77.3844c1.3087,0 2.3814,0.1134 3.2113,0.325 0.8375,0.2199 1.4874,0.5203 1.9514,0.9105 0.4632,0.3821 0.7965,0.829 0.9997,1.3422 0.2035,0.5198 0.3253,1.0728 0.3738,1.665 0.041,0.6025 0.0563,1.2209 0.0487,1.8542 0.0076,0.6337 -0.0077,1.252 -0.0487,1.8543 -0.0485,0.5927 -0.1703,1.146 -0.3738,1.658 -0.2032,0.5203 -0.5365,0.9673 -0.9997,1.3493 -0.464,0.3904 -1.1139,0.6908 -1.9514,0.9024 -0.8299,0.2201 -1.9026,0.3331 -3.2113,0.3331 -1.3415,0 -2.6011,-0.0814 -3.7888,-0.2521 -2.46,-0.3536 -4.847,-0.8308 -6.1089,-3.2272 1.0505,0.608 1.9937,1.003 2.7277,0.8715l0 -8.5136c1.0726,-0.3405 2.1937,-0.6093 3.3812,-0.7963 1.1877,-0.1788 2.4473,-0.2763 3.7888,-0.2763zm-14.9746 -6.0976l0 13.6809 3.9965 8.4489 0 3.6329 -3.9965 0 0 4.6266c-0.0117,3.4453 3.1508,6.1609 6.1964,6.1939l1.6082 0 0 -12.3405c1.1213,0.3658 2.3085,0.6419 3.5684,0.8367 1.261,0.1867 2.6027,0.2851 4.0407,0.2851 2.7235,-0.0077 4.9836,-0.3338 6.7877,-0.9587 1.8133,-0.6263 3.2352,-1.4972 4.2847,-2.6183 1.0487,-1.1139 1.7966,-2.4062 2.2357,-3.8692 0.4391,-1.4715 0.6581,-3.0561 0.643,-4.7479l0 -1.9509c0.0151,-1.6924 -0.2039,-3.2765 -0.643,-4.7479 -0.4391,-1.4716 -1.187,-2.7559 -2.2357,-3.8779 -1.0495,-1.1132 -2.4714,-1.9835 -4.2847,-2.6099 -1.8041,-0.6254 -4.0642,-0.9508 -6.7877,-0.9589 -2.1138,0 -4.0572,0.2111 -5.8373,0.6254 -1.7718,0.4235 -3.4397,1.0577 -4.9915,1.91l-2.6336 -1.5603 -1.9513 0zm47.3733 6.0974c1.3088,0 2.3818,0.1141 3.2111,0.3254 0.8374,0.2193 1.4877,0.5201 1.9511,0.9103 0.4635,0.3823 0.7968,0.8293 1,1.3417 0.2032,0.5201 0.325,1.0727 0.3738,1.6665 0.0406,0.6015 0.0572,1.2194 0.0489,1.8536 0.0083,0.6338 -0.0083,1.252 -0.0489,1.8533 -0.0488,0.5936 -0.1706,1.1463 -0.3738,1.6586 -0.2032,0.5203 -0.5365,0.9673 -1,1.3496 -0.4634,0.3901 -1.1137,0.6908 -1.9511,0.9023 -0.8293,0.2194 -1.9023,0.3333 -3.2111,0.3333 -1.3418,0 -2.6016,-0.0816 -3.7885,-0.2519 -2.4603,-0.3539 -4.8475,-0.8313 -6.1092,-3.2273 1.0503,0.6075 1.9937,1.0023 2.7273,0.871l0 -8.5128c1.073,-0.3417 2.1948,-0.61 3.3819,-0.797 1.1869,-0.1788 2.4467,-0.2765 3.7885,-0.2765l0 -0.0001zm-14.9747 -6.0971l0 30.3887c-0.0119,3.4455 3.152,6.1613 6.1961,6.1941l1.6083 0 0 -12.3405c1.122,0.3662 2.3087,0.6423 3.569,0.8372 1.2599,0.1872 2.6013,0.2848 4.0403,0.2848 2.7235,-0.0081 4.9832,-0.3333 6.7883,-0.9594 1.8127,-0.6259 3.2355,-1.4958 4.284,-2.6178 1.0488,-1.1135 1.7969,-2.4062 2.236,-3.8696 0.4391,-1.4716 0.6583,-3.0565 0.6419,-4.7478l0 -1.9508c0.0164,-1.6911 -0.2028,-3.2763 -0.6419,-4.7478 -0.4391,-1.4715 -1.1872,-2.7558 -2.236,-3.8778 -1.0485,-1.1137 -2.4713,-1.9836 -4.284,-2.6096 -1.8051,-0.6261 -4.0648,-0.9511 -6.7883,-0.9593 -2.1137,0 -4.0567,0.2112 -5.8371,0.6261 -1.7722,0.4227 -3.4389,1.0567 -4.9915,1.9103l-2.634 -1.5609 -1.9511 0 0 0.0001zm-42.5406 13.2121l-6.1611 -13.6509 -4.9751 11.1697 7.9675 0 3.1687 2.4812zm4.8626 11.1765l-2.7804 -6.3407 -16.4376 0 -9.8169 18.4435 -2.1048 0c-1.962,-0.084 -4.0644,-4.549 -2.3,-8.962l18.0261 -35.8216 8.7801 0 14.5356 30.7297 0 1.951 -7.9022 0 0.0001 0.0001z"/>
   <path id="_105262912" class="fil1" d="M3.4672 107.686l0 -5.2553 1.5435 0 0.9276 3.5853 0.9191 -3.5853 1.5475 0 0 5.2553 -0.9569 0 0 -4.137 -1.0163 4.137 -0.9961 0 -1.0074 -4.137 0 4.137 -0.961 0zm7.1249 0l0 -5.2553 1.0295 0 0 5.2553 -1.0295 0zm2.9484 -1.7092l1.0074 -0.1018c0.1134,0.6718 0.4851,1.0084 1.1153,1.0084 0.3102,0 0.556,-0.0685 0.7346,-0.2067 0.1799,-0.1371 0.2684,-0.3072 0.2684,-0.5101 0,-0.12 -0.0304,-0.2218 -0.093,-0.3049 -0.0624,-0.0842 -0.1584,-0.153 -0.286,-0.2066 -0.1276,-0.0539 -0.4356,-0.1434 -0.9262,-0.2707 -0.4399,-0.1123 -0.7621,-0.2338 -0.9657,-0.3658 -0.2042,-0.1309 -0.367,-0.3035 -0.4874,-0.5176 -0.1208,-0.2138 -0.1803,-0.4439 -0.1803,-0.6899 0,-0.2864 0.0771,-0.5446 0.2308,-0.7747 0.1557,-0.2285 0.3689,-0.4025 0.6405,-0.5197 0.2728,-0.1166 0.6082,-0.1749 1.0087,-0.1749 0.6014,0 1.0702,0.1367 1.4068,0.4122 0.3383,0.274 0.5169,0.6679 0.5363,1.1794l-1.0327 0.0464c-0.0464,-0.2826 -0.1436,-0.4795 -0.2948,-0.592 -0.1492,-0.1113 -0.3644,-0.1677 -0.6416,-0.1677 -0.2773,0 -0.492,0.0489 -0.6415,0.1468 -0.151,0.0979 -0.2264,0.219 -0.2264,0.3658 0,0.1432 0.068,0.2633 0.2046,0.3608 0.1362,0.0995 0.4498,0.2057 0.9395,0.3233 0.5197,0.1272 0.894,0.2605 1.1248,0.4 0.2311,0.1393 0.4081,0.3205 0.5299,0.5409 0.1222,0.2213 0.1828,0.4895 0.1828,0.8051 0,0.4563 -0.167,0.8391 -0.4992,1.1499 -0.334,0.3107 -0.8551,0.4661 -1.5635,0.4661 -1.2533,0 -1.9514,-0.6004 -2.0921,-1.802zm9.4884 -0.2227l1.0002 0.3255c-0.1566,0.5885 -0.4152,1.0179 -0.778,1.2895 -0.3628,0.2705 -0.8098,0.4064 -1.3397,0.4064 -0.6666,0 -1.2066,-0.2166 -1.6202,-0.6488 -0.4777,-0.4992 -0.7159,-1.1733 -0.7159,-2.0211 0,-0.8968 0.2394,-1.5981 0.72,-2.1045 0.4169,-0.4394 0.9755,-0.6593 1.6797,-0.6593 0.5718,0 1.0511,0.165 1.4375,0.4939 0.2738,0.2352 0.4758,0.5827 0.6038,1.0437l-1.0206 0.251c-0.0654,-0.2851 -0.1946,-0.503 -0.3892,-0.6545 -0.1949,-0.1517 -0.4239,-0.2277 -0.6865,-0.2277 -0.3774,0 -0.6854,0.1382 -0.9236,0.4161 -0.2378,0.2763 -0.357,0.7342 -0.357,1.3726 0,0.6622 0.1159,1.1331 0.3483,1.4122 0.2322,0.2802 0.5345,0.4194 0.9061,0.4194 0.2728,0 0.5083,-0.089 0.7055,-0.2663 0.1988,-0.1788 0.3428,-0.4614 0.4296,-0.8481zm3.0759 1.9319l0 -5.2553 3.7953 0 0 0.8898 -2.7656 0 0 1.1647 2.5695 0 0 0.8845 -2.5695 0 0 1.4304 2.8586 0 0 0.8859 -3.8883 0zm5.9811 0l0 -5.2122 1.0297 0 0 4.3263 2.5681 0 0 0.8859 -3.5978 0zm10.1363 0l-1.1223 0 -0.447 -1.1942 -2.0413 0 -0.421 1.1942 -1.0975 0 1.9906 -5.2553 1.093 0 2.0455 5.2553zm-1.9003 -2.0787l-0.7027 -1.9502 -0.6928 1.9502 1.3955 0zm3.6496 2.0787l0 -5.2553 1.0046 0 2.0917 3.5093 0 -3.5093 0.9617 0 0 5.2553 -1.0382 0 -2.0588 -3.4271 0 3.4271 -0.961 0zm6.3381 0l0 -5.2553 3.795 0 0 0.8898 -2.7653 0 0 1.1647 2.5691 0 0 0.8845 -2.5691 0 0 1.4304 2.8583 0 0 0.8859 -3.888 0zm10.5617 0l-1.1225 0 -0.447 -1.1942 -2.0411 0 -0.421 1.1942 -1.0977 0 1.9905 -5.2553 1.0933 0 2.0455 5.2553zm-1.9005 -2.0787l-0.7027 -1.9502 -0.6926 1.9502 1.3953 0zm10.1295 2.0787l0 -5.2553 1.6594 0c0.6184,0 1.0218,0.0258 1.2122,0.0761 0.3036,0.0807 0.5533,0.2544 0.7505,0.5187 0.1976,0.2654 0.2962,0.6068 0.2962,1.0255 0,0.3805 -0.0856,0.6985 -0.2557,0.9553 -0.1696,0.2572 -0.3829,0.437 -0.6386,0.5411 -0.2538,0.1039 -0.6941,0.1564 -1.3182,0.1564l-0.6767 0 0 1.9822 -1.0291 0zm1.0291 -4.3655l0 1.4902 0.5708 0c0.3828,0 0.6433,-0.022 0.7811,-0.0673 0.1361,-0.045 0.2496,-0.1273 0.3364,-0.2459 0.0886,-0.1185 0.1322,-0.263 0.1322,-0.4354 0,-0.174 -0.045,-0.3219 -0.135,-0.4409 -0.0914,-0.1195 -0.203,-0.1993 -0.3364,-0.241 -0.134,-0.0402 -0.4155,-0.0597 -0.8465,-0.0597l-0.5026 0zm4.9185 -0.8898l1.0292 0 0 2.8462c0,0.4427 0.0118,0.7305 0.0382,0.8639 0.0446,0.2324 0.1536,0.4111 0.3248,0.5384 0.1712,0.1258 0.3976,0.1893 0.6781,0.1893 0.2382,0 0.4328,-0.045 0.5838,-0.1343 0.1496,-0.0895 0.2524,-0.2143 0.3078,-0.3733 0.055,-0.1579 0.0824,-0.4992 0.0824,-1.0229l0 -2.9073 1.0339 0 0 2.7605c0,0.7049 -0.0452,1.215 -0.1336,1.5282 -0.0903,0.3145 -0.2905,0.569 -0.6043,0.7634 -0.3131,0.196 -0.7272,0.2927 -1.2396,0.2927 -0.5326,0 -0.9495,-0.0809 -1.2485,-0.2424 -0.299,-0.1601 -0.5152,-0.3878 -0.6502,-0.6803 -0.135,-0.2923 -0.202,-0.8319 -0.202,-1.6188l0 -2.8033zm6.3543 0l2.0469 0c0.5577,0 0.9509,0.0431 1.1777,0.1301 0.2264,0.0856 0.4182,0.2371 0.5748,0.4551 0.1554,0.2165 0.2336,0.4637 0.2336,0.7377 0,0.2535 -0.067,0.482 -0.2004,0.6866 -0.1336,0.2042 -0.3062,0.3557 -0.5184,0.4536 0.3036,0.0906 0.5402,0.2459 0.7116,0.4664 0.1729,0.2188 0.2585,0.487 0.2585,0.8026 0,0.3816 -0.1105,0.7057 -0.3285,0.9692 -0.2176,0.264 -0.4758,0.4269 -0.7736,0.4892 -0.2077,0.0428 -0.6881,0.0648 -1.4415,0.0648l-1.7407 0 0 -5.2553zm1.0292 0.875l0 1.215 0.6807 0c0.4082,0 0.661,-0.006 0.758,-0.0183 0.1759,-0.0234 0.312,-0.0856 0.4125,-0.1874 0.0985,-0.1014 0.1479,-0.2396 0.1479,-0.4146 0,-0.1554 -0.0389,-0.2815 -0.1201,-0.3781 -0.0819,-0.0967 -0.1788,-0.1565 -0.2934,-0.1813 -0.1148,-0.023 -0.4443,-0.0353 -0.9887,-0.0353l-0.5969 0zm0 2.0898l0 1.4046 0.9583 0c0.4196,0 0.6881,-0.0181 0.8073,-0.055 0.119,-0.0367 0.219,-0.1099 0.3004,-0.2188 0.08,-0.109 0.1206,-0.246 0.1206,-0.4136 0,-0.1727 -0.0439,-0.3133 -0.1295,-0.4247 -0.0869,-0.1113 -0.2015,-0.1883 -0.3439,-0.2299 -0.1436,-0.0417 -0.4369,-0.0626 -0.8781,-0.0626l-0.8351 0zm5.3482 2.2905l0 -5.2122 1.0293 0 0 4.3263 2.5682 0 0 0.8859 -3.5975 0zm5.4957 0l0 -5.2553 1.0297 0 0 5.2553 -1.0297 0zm6.4823 -1.9319l0.9999 0.3255c-0.1564,0.5885 -0.4151,1.0179 -0.7776,1.2895 -0.3631,0.2705 -0.8101,0.4064 -1.3401,0.4064 -0.6665,0 -1.2065,-0.2166 -1.6201,-0.6488 -0.4778,-0.4992 -0.7159,-1.1733 -0.7159,-2.0211 0,-0.8968 0.2394,-1.5981 0.7199,-2.1045 0.417,-0.4394 0.9756,-0.6593 1.6797,-0.6593 0.572,0 1.0512,0.165 1.4375,0.4939 0.2742,0.2352 0.4762,0.5827 0.6038,1.0437l-1.0205 0.251c-0.0654,-0.2851 -0.1946,-0.503 -0.3892,-0.6545 -0.1946,-0.1517 -0.424,-0.2277 -0.6866,-0.2277 -0.3774,0 -0.6853,0.1382 -0.9235,0.4161 -0.2378,0.2763 -0.357,0.7342 -0.357,1.3726 0,0.6622 0.116,1.1331 0.3486,1.4122 0.2322,0.2802 0.5341,0.4194 0.9057,0.4194 0.2732,0 0.5084,-0.089 0.7059,-0.2663 0.1985,-0.1788 0.3425,-0.4614 0.4295,-0.8481zm3.0423 1.9319l0 -5.2553 1.0296 0 0 5.2553 -1.0296 0zm4.3596 0l0 -4.3655 -1.5183 0 0 -0.8898 4.0618 0 0 0.8898 -1.5141 0 0 4.3655 -1.0294 0zm8.4915 0l-1.1227 0 -0.447 -1.1942 -2.041 0 -0.421 1.1942 -1.0977 0 1.9906 -5.2553 1.0933 0 2.0455 5.2553zm-1.9003 -2.0787l-0.7029 -1.9502 -0.6926 1.9502 1.3955 0zm3.6405 2.0787l0 -5.2553 2.1731 0c0.5566,0 0.9542,0.0478 1.192,0.142 0.2383,0.0942 0.4345,0.2582 0.5866,0.4906 0.1541,0.2338 0.2295,0.5129 0.2295,0.8371 0,0.4111 -0.1162,0.7426 -0.3498,0.9934 -0.2355,0.251 -0.5677,0.4089 -0.9975,0.4725 0.2206,0.1343 0.4034,0.2802 0.5474,0.4393 0.1452,0.1589 0.3427,0.4442 0.5923,0.8549l0.6202 1.0255 -1.2287 0 -0.7488 -1.1439c-0.2688,-0.4122 -0.4516,-0.6718 -0.5488,-0.7757 -0.0958,-0.1041 -0.199,-0.1749 -0.3062,-0.2155 -0.1076,-0.0392 -0.2802,-0.0587 -0.5184,-0.0587l-0.2132 0 0 2.1938 -1.0297 0zm1.0297 -3.0332l0.7662 0c0.4675,0 0.7652,-0.017 0.8928,-0.0515 0.1276,-0.0339 0.2308,-0.1038 0.311,-0.2089 0.0782,-0.1052 0.1184,-0.2461 0.1184,-0.4198 0,-0.1677 -0.0402,-0.3022 -0.1184,-0.4039 -0.0802,-0.1015 -0.1878,-0.1712 -0.3238,-0.209 -0.0962,-0.0273 -0.3763,-0.0392 -0.8378,-0.0392l-0.8084 0 0 1.3323zm5.2837 3.0332l0 -5.2553 1.0295 0 0 5.2553 -1.0295 0zm7.818 0l-1.1227 0 -0.4472 -1.1942 -2.0411 0 -0.4209 1.1942 -1.0978 0 1.9907 -5.2553 1.0931 0 2.0459 5.2553zm-1.9005 -2.0787l-0.7031 -1.9502 -0.6924 1.9502 1.3955 0z"/>
   <polygon id="_105262648" class="fil2" points="147.201,13.3789 132.994,19.4498 139.693,28.4509 121.211,8.9273 80.5387,0 105.924,21.9915 92.2786,12.073 81.575,8.9235 115.349,30.1572 115.664,30.4303 107.402,59.1693 106.218,63.2864 105.761,64.8762 102.973,74.5753 122.409,54.2573 118.103,36.5398 121.859,45.9507 142.619,31.5416 147.106,15.2562 146.836,20.5954 156.928,16.4783 157.993,18.2924 158.715,15.7633 147.679,13.1743 "/>
  </g>
 </g>
</svg>
