<?xml version="1.0" encoding="UTF-8"?>
<!DOCTYPE svg PUBLIC "-//W3C//DTD SVG 1.1//EN" "http://www.w3.org/Graphics/SVG/1.1/DTD/svg11.dtd">
<!-- Creator: CorelDRAW -->
<svg xmlns="http://www.w3.org/2000/svg" xml:space="preserve" width="67.7046mm" height="67.7046mm" style="shape-rendering:geometricPrecision; text-rendering:geometricPrecision; image-rendering:optimizeQuality; fill-rule:evenodd; clip-rule:evenodd"
viewBox="0 0 14.9983 14.9983"
 xmlns:xlink="http://www.w3.org/1999/xlink">
 <defs>
  <style type="text/css">
   <![CDATA[
    .fil3 {fill:url(#id0)}
    .fil0 {fill:url(#id1)}
    .fil1 {fill:url(#id2);fill-rule:nonzero}
    .fil2 {fill:url(#id3);fill-rule:nonzero}
   ]]>
  </style>
  <linearGradient id="id0" gradientUnits="userSpaceOnUse" x1="9.05813" y1="6.8448" x2="9.05813" y2="0.847336">
   <stop offset="0" style="stop-color:#09253F"/>
   <stop offset="1" style="stop-color:#003F72"/>
  </linearGradient>
  <linearGradient id="id1" gradientUnits="userSpaceOnUse" x1="5.54993" y1="14.7738" x2="9.44841" y2="0.224494">
   <stop offset="0" style="stop-color:#C2C1C1"/>
   <stop offset="0.380392" style="stop-color:#DEDEDD"/>
   <stop offset="0.560784" style="stop-color:white"/>
   <stop offset="1" style="stop-color:white"/>
  </linearGradient>
  <linearGradient id="id2" gradientUnits="userSpaceOnUse" xlink:href="#id0" x1="4.76416" y1="9.99565" x2="4.76416" y2="3.45091">
  </linearGradient>
  <linearGradient id="id3" gradientUnits="userSpaceOnUse" x1="6.79163" y1="14.4618" x2="12.0369" y2="5.37668">
   <stop offset="0" style="stop-color:#EF9B11"/>
   <stop offset="0.541176" style="stop-color:#EF9B11"/>
   <stop offset="0.678431" style="stop-color:#FACF00"/>
   <stop offset="1" style="stop-color:#F8C300"/>
  </linearGradient>
 </defs>
 <g id="Capa_x0020_1">
  <metadata id="CorelCorpID_0Corel-Layer"/>
  <rect class="fil0" width="14.9983" height="14.9983" rx="0.697541" ry="0.697541"/>
  <path class="fil1" d="M6.54405 7.79818l0 0.685911c-0.211956,0.0183645 -0.413234,0.0320991 -0.60543,0.0412924 -0.190401,0.00921548 -0.36729,0.0138454 -0.528428,0.0138454 -0.365673,0 -0.674502,-0.0213772 -0.928016,-0.061407 -0.253403,-0.0400297 -0.460885,-0.0999303 -0.622178,-0.175094 -0.161293,-0.0767366 -0.287363,-0.169069 -0.377923,-0.276774 -0.0890977,-0.108858 -0.153606,-0.230365 -0.193591,-0.365518 -0.0382797,-0.133602 -0.0630241,-0.281138 -0.0706889,-0.437868 -0.00919332,-0.156619 -0.0122504,-0.324137 -0.010744,-0.499231 -0.00150638,-0.175293 0.00155068,-0.34259 0.010744,-0.49943 0.0076648,-0.156663 0.0324092,-0.30256 0.0706889,-0.436317 0.0399854,-0.13358 0.104494,-0.255043 0.193591,-0.362505 0.0905598,-0.106067 0.21663,-0.198155 0.377923,-0.273518 0.161293,-0.0766923 0.368774,-0.133647 0.622178,-0.175094 0.253514,-0.040074 0.562343,-0.0600557 0.928016,-0.0600557 0.172015,0 0.361021,0.00622488 0.568413,0.0185196 0.207481,0.0122504 0.425618,0.0323649 0.653036,0.0583942 0.228814,0.0276464 0.459334,0.0629577 0.694218,0.105867 0.23515,0.0431311 0.465625,0.0953004 0.693088,0.15828l0 -1.50259c-0.405614,-0.0967404 -0.823522,-0.172037 -1.25361,-0.224206 -0.428675,-0.0522358 -0.865036,-0.0798158 -1.30904,-0.0798158l-0.332023 0c-0.562122,0.00143992 -1.0491,0.05372 -1.45943,0.155068 -0.410111,0.101437 -0.752767,0.245916 -1.03105,0.431798 -0.277882,0.18586 -0.499231,0.405503 -0.663625,0.657555 -0.164261,0.251897 -0.282601,0.530134 -0.35484,0.832694 -0.0706889,0.301209 -0.105956,0.620627 -0.104449,0.955552l0 0.479293c-0.00150638,0.334991 0.0337605,0.654498 0.104449,0.955707 0.0722396,0.302671 0.190579,0.580752 0.35484,0.832849 0.164394,0.251853 0.385743,0.471429 0.663625,0.657467 0.278281,0.18586 0.620937,0.328744 1.03105,0.431687 0.410332,0.101282 0.897313,0.153673 1.45943,0.155112l0.332023 0c0.408516,-0.00124054 0.813509,-0.0211557 1.21518,-0.0593246l1.31117 -2.62829c-0.223276,-0.322121 -0.594642,-0.5763 -1.0238,-0.593977l-0.315276 0 -0.0995094 0 -1.03973 0 0.583388 1.08413 0.456343 0z"/>
  <path class="fil2" d="M11.0751 9.7515l-1.16434 -2.57982 -0.940244 2.11092 1.50576 0 0.598829 0.468904zm0.918956 2.11223l-0.525437 -1.19832 -3.10648 0 -1.85526 3.48558 -0.397772 0c-0.37079,-0.0158834 -0.768097,-0.85972 -0.434656,-1.69368l3.40667 -6.76976 1.65927 0 2.74701 5.80743 0 0.368752 -1.49335 0z"/>
  <polygon class="fil3" points="11.2754,1.92329 10.1328,2.41151 10.6716,3.13539 9.18526,1.56528 5.91432,0.847336 7.95579,2.61593 6.85844,1.81826 5.99766,1.56497 8.71381,3.27262 8.73917,3.29458 7.71852,6.8448 9.28156,5.2108 8.93529,3.78592 9.23739,4.54276 10.9069,3.38394 11.2677,2.07426 11.246,2.50364 12.0615,2.17193 12.2019,2.28909 12.2014,2.11504 11.3139,1.90683 "/>
 </g>
</svg>
