<?xml version="1.0" encoding="UTF-8"?>
<!DOCTYPE svg PUBLIC "-//W3C//DTD SVG 1.1//EN" "http://www.w3.org/Graphics/SVG/1.1/DTD/svg11.dtd">
<!-- Creator: CorelDRAW -->
<svg xmlns="http://www.w3.org/2000/svg" xml:space="preserve" width="67.881mm" height="67.881mm" style="shape-rendering:geometricPrecision; text-rendering:geometricPrecision; image-rendering:optimizeQuality; fill-rule:evenodd; clip-rule:evenodd"
viewBox="0 0 11.348 11.348"
 xmlns:xlink="http://www.w3.org/1999/xlink">
 <defs>
  <style type="text/css">
   <![CDATA[
    .str0 {stroke:#1F1A17;stroke-width:0.0294897}
    .fil0 {fill:#28166F}
    .fil1 {fill:white;fill-rule:nonzero}
   ]]>
  </style>
 </defs>
 <g id="Capa_x0020_1">
  <metadata id="CorelCorpID_0Corel-Layer"/>
  <path class="fil0 str0" d="M1.71252 0.0147448l7.92296 0c0.933806,0 1.69778,0.763973 1.69778,1.69778l0 7.92296c0,0.933806 -0.763973,1.69778 -1.69778,1.69778l-7.92296 0c-0.933806,0 -1.69778,-0.763973 -1.69778,-1.69778l0 -7.92296c0,-0.933806 0.763973,-1.69778 1.69778,-1.69778z"/>
  <path class="fil1" d="M2.24319 6.82169l0.613415 -0.0814811c0.0709992,0.348025 0.19088,0.598286 0.35966,0.751936 0.16995,0.153634 0.375977,0.230467 0.619233,0.230467 0.288678,0 0.533104,-0.100104 0.732143,-0.300313 0.197885,-0.200209 0.297989,-0.448129 0.297989,-0.743778 0,-0.28169 -0.091963,-0.514481 -0.275872,-0.69722 -0.185063,-0.182739 -0.419024,-0.274702 -0.703038,-0.274702 -0.116404,0 -0.260726,0.0232875 -0.433,0.0686755l0.0686755 -0.538922c0.0407405,0.00466418 0.0733229,0.00698791 0.0989342,0.00698791 0.260726,0 0.495858,-0.0686755 0.705378,-0.204856 0.209504,-0.136197 0.314272,-0.346871 0.314272,-0.630885 0,-0.22465 -0.0768336,-0.412036 -0.229314,-0.558699 -0.15248,-0.147833 -0.349195,-0.222326 -0.590128,-0.222326 -0.238609,0 -0.437664,0.0756634 -0.595962,0.22465 -0.159468,0.150157 -0.261896,0.37596 -0.307284,0.676273l-0.613415 -0.109416c0.0744932,-0.412053 0.245597,-0.730973 0.510987,-0.956793 0.266544,-0.225803 0.597116,-0.339883 0.992869,-0.339883 0.272378,0 0.523793,0.0593638 0.75309,0.175768 0.229297,0.117557 0.405065,0.277026 0.527287,0.479558 0.121051,0.202532 0.182739,0.4167 0.182739,0.644844 0,0.215338 -0.0581936,0.412036 -0.174598,0.590128 -0.116387,0.176921 -0.287508,0.317766 -0.514481,0.422535 0.295649,0.0675053 0.524963,0.209504 0.689079,0.424842 0.162962,0.214168 0.244443,0.483052 0.244443,0.805466 0,0.436494 -0.158315,0.806636 -0.477234,1.11044 -0.317766,0.30379 -0.720507,0.455117 -1.20704,0.455117 -0.438834,0 -0.803159,-0.13038 -1.09297,-0.392259 -0.289831,-0.260743 -0.455117,-0.599456 -0.495858,-1.01616zm7.10724 0.729819l0 0.590128 -3.30453 0c-0.00466418,-0.147833 0.0186233,-0.289831 0.0709992,-0.426012 0.0838048,-0.22582 0.218832,-0.446976 0.403895,-0.665791 0.18625,-0.217662 0.453964,-0.470247 0.803142,-0.756584 0.543586,-0.445806 0.911405,-0.798495 1.10228,-1.05922 0.190897,-0.259573 0.286354,-0.50634 0.286354,-0.737961 0,-0.243273 -0.0872988,-0.448129 -0.260743,-0.615739 -0.174598,-0.166456 -0.401571,-0.250261 -0.68092,-0.250261 -0.295649,0 -0.531934,0.088469 -0.708855,0.266544 -0.178092,0.176938 -0.267714,0.422535 -0.270054,0.735637l-0.630868 -0.0640113c0.0430643,-0.471417 0.206026,-0.829923 0.4877,-1.07669 0.28169,-0.24675 0.661144,-0.370142 1.13604,-0.370142 0.479558,0 0.859029,0.133857 1.13838,0.399247 0.28052,0.266561 0.420194,0.595962 0.420194,0.989375 0,0.200209 -0.0407405,0.396924 -0.123375,0.590144 -0.0814811,0.193221 -0.217679,0.396907 -0.407405,0.609921 -0.189727,0.214168 -0.505153,0.507493 -0.946311,0.879959 -0.367818,0.309625 -0.604104,0.519145 -0.708855,0.629715 -0.104752,0.109416 -0.190897,0.219986 -0.259573,0.331742l2.45251 0z"/>
 </g>
</svg>
