<?xml version="1.0" encoding="UTF-8"?>
<!DOCTYPE svg PUBLIC "-//W3C//DTD SVG 1.1//EN" "http://www.w3.org/Graphics/SVG/1.1/DTD/svg11.dtd">
<!-- Creator: CorelDRAW -->
<svg xmlns="http://www.w3.org/2000/svg" xml:space="preserve" width="67.881mm" height="67.881mm" style="shape-rendering:geometricPrecision; text-rendering:geometricPrecision; image-rendering:optimizeQuality; fill-rule:evenodd; clip-rule:evenodd"
viewBox="0 0 2.95153 2.95153"
 xmlns:xlink="http://www.w3.org/1999/xlink">
 <defs>
  <style type="text/css">
   <![CDATA[
    .str0 {stroke:#1F1A17;stroke-width:0.00767005}
    .fil0 {fill:#EF9BA0}
    .fil1 {fill:white;fill-rule:nonzero}
   ]]>
  </style>
 </defs>
 <g id="Capa_x0020_1">
  <metadata id="CorelCorpID_0Corel-Layer"/>
  <rect class="fil0 str0" x="0.00383561" y="0.00383608" width="2.94386" height="2.94386" rx="0.136913" ry="0.136913"/>
  <path class="fil1" d="M0.523846 1.777l0.114238 -0.0142313c0.0084527,0.0817399 0.0280409,0.142896 0.0587646,0.184068 0.0309324,0.0411721 0.0680477,0.0617604 0.111559,0.0617604 0.0523729,0 0.0967061,-0.029067 0.132791,-0.0868881 0.0362892,-0.0581254 0.0544382,-0.135022 0.0544382,-0.230688 0,-0.0911275 -0.0173185,-0.162875 -0.0521685,-0.215553 -0.03485,-0.0526772 -0.0804181,-0.079018 -0.136922,-0.079018 -0.03505,0 -0.0665998,0.0118094 -0.0948494,0.0351196 -0.0282496,0.0233102 -0.0503119,0.053586 -0.0663955,0.0908231l-0.102072 -0.0193751 0.0857793 -0.667846 0.440449 0 0 0.152579 -0.353431 0 -0.0478421 0.349365c0.0532033,-0.0544947 0.109081,-0.0817399 0.167441,-0.0817399 0.0773222,0 0.142483,0.0393546 0.195682,0.118068 0.053199,0.0787136 0.0798007,0.179829 0.0798007,0.303345 0,0.117768 -0.0235058,0.219488 -0.0701087,0.305163 -0.0569079,0.105054 -0.134443,0.157732 -0.232593,0.157732 -0.0806268,0 -0.146405,-0.0330021 -0.197338,-0.0993019 -0.0509293,-0.0662998 -0.080005,-0.154092 -0.0872229,-0.263382zm1.09761 0.340582l-0.108668 0 0 -1.01721c-0.0261843,0.0366327 -0.0604168,0.0732655 -0.102893,0.109894 -0.0426853,0.0366327 -0.0808312,0.0641823 -0.114646,0.0823486l0 -0.154097c0.0608299,-0.0420809 0.114029,-0.0929406 0.159601,-0.152583 0.0453637,-0.0599429 0.0777353,-0.117764 0.0967061,-0.174076l0.0699 0 0 1.30573zm0.850175 -0.153488l0 0.153488 -0.585406 0c-0.000826139,-0.0384502 0.00330021,-0.075383 0.0125791,-0.110803 0.0148444,-0.0587341 0.0387633,-0.116255 0.071548,-0.173167 0.0329977,-0.0566122 0.0804224,-0.122308 0.142278,-0.196782 0.0963017,-0.115951 0.161462,-0.207683 0.195277,-0.275496 0.0338152,-0.0675129 0.0507249,-0.131695 0.0507249,-0.191938 0,-0.0632735 -0.0154618,-0.116555 -0.0461899,-0.160149 -0.0309324,-0.043294 -0.0711392,-0.065091 -0.120629,-0.065091 -0.0523729,0 -0.094232,0.0230101 -0.125573,0.0693261 -0.0315498,0.0460203 -0.0474291,0.109898 -0.0478421,0.191334l-0.111759 -0.0166489c0.00762657,-0.122612 0.0364979,-0.215857 0.0863967,-0.280039 0.0499031,-0.0641779 0.117125,-0.0962713 0.201252,-0.0962713 0.0849575,0 0.152179,0.0348152 0.201669,0.103841 0.0496944,0.0693304 0.0744395,0.155005 0.0744395,0.257329 0,0.0520728 -0.00721784,0.103237 -0.0218579,0.153492 -0.0144357,0.0502553 -0.0385633,0.103233 -0.0721741,0.158636 -0.0336108,0.0557035 -0.0894882,0.131995 -0.167641,0.228871 -0.0651606,0.0805311 -0.10702,0.135026 -0.125577,0.163784 -0.0185577,0.0284583 -0.0338152,0.0572166 -0.0459811,0.0862837l0.434466 0z"/>
 </g>
</svg>
