<?xml version="1.0" encoding="UTF-8"?>
<!DOCTYPE svg PUBLIC "-//W3C//DTD SVG 1.1//EN" "http://www.w3.org/Graphics/SVG/1.1/DTD/svg11.dtd">
<!-- Creator: CorelDRAW -->
<svg xmlns="http://www.w3.org/2000/svg" xml:space="preserve" width="67.881mm" height="67.881mm" style="shape-rendering:geometricPrecision; text-rendering:geometricPrecision; image-rendering:optimizeQuality; fill-rule:evenodd; clip-rule:evenodd"
viewBox="0 0 3.69611 3.69611"
 xmlns:xlink="http://www.w3.org/1999/xlink">
 <defs>
  <style type="text/css">
   <![CDATA[
    .str0 {stroke:#1F1A17;stroke-width:0.00960496}
    .fil0 {fill:#DD137B}
    .fil1 {fill:white;fill-rule:nonzero}
   ]]>
  </style>
 </defs>
 <g id="Capa_x0020_1">
  <metadata id="CorelCorpID_0Corel-Layer"/>
  <rect class="fil0 str0" x="0.00480322" y="0.00480381" width="3.68651" height="3.68651" rx="0.171452" ry="0.171452"/>
  <path class="fil1" d="M1.37178 2.45957l0 0.192208 -0.733086 0c-0.00103455,-0.04815 0.00413275,-0.0943998 0.0157469,-0.138755 0.0185946,-0.0735509 0.0485475,-0.145583 0.0896028,-0.216852 0.041322,-0.0708938 0.100711,-0.153162 0.178171,-0.246424 0.120596,-0.145202 0.202189,-0.260074 0.244534,-0.344995 0.0423511,-0.0845444 0.0635267,-0.164918 0.0635267,-0.240358 0,-0.0792355 -0.0193624,-0.145958 -0.0578421,-0.20055 -0.0387357,-0.0542158 -0.0890855,-0.0815115 -0.15106,-0.0815115 -0.0655849,0 -0.118004,0.0288149 -0.157251,0.0868149 -0.0395088,0.0576298 -0.0593939,0.137622 -0.0599112,0.239601l-0.139953 -0.0208489c0.00955051,-0.153543 0.0457052,-0.270311 0.108192,-0.350685 0.0624921,-0.080368 0.146672,-0.120558 0.252021,-0.120558 0.10639,0 0.190569,0.043598 0.252544,0.130037 0.0622308,0.0868204 0.0932182,0.194108 0.0932182,0.322245 0,0.0652092 -0.00903868,0.12928 -0.027372,0.192214 -0.0180774,0.0629332 -0.0482916,0.129275 -0.0903814,0.198655 -0.0420898,0.0697558 -0.112063,0.165294 -0.209932,0.286608 -0.0815986,0.100847 -0.134018,0.169089 -0.157257,0.205102 -0.0232392,0.0356375 -0.0423457,0.0716506 -0.0575808,0.10805l0.544069 0zm0.145899 -0.234292l0.143051 -0.0178215c0.0105851,0.10236 0.0351202,0.178944 0.0735945,0.230503 0.0387302,0.0515586 0.0852141,0.0773406 0.139697,0.0773406 0.0655903,0 0.121107,-0.0363998 0.166295,-0.108807 0.0454439,-0.0727886 0.0681713,-0.169083 0.0681713,-0.288884 0,-0.114116 -0.0216928,-0.203964 -0.0653344,-0.26993 -0.0436361,-0.0659661 -0.100705,-0.0989518 -0.171457,-0.0989518 -0.0438975,0 -0.0834064,0.0147886 -0.118782,0.0439792 -0.0353707,0.0291906 -0.063004,0.0671041 -0.083145,0.113735l-0.127816 -0.0242629 0.107413 -0.836323 0.551561 0 0 0.19107 -0.442585 0 -0.0599112 0.437499c0.0666249,-0.0682421 0.136598,-0.10236 0.209676,-0.10236 0.0968283,0 0.178427,0.0492826 0.245052,0.147853 0.0666195,0.0985707 0.0999319,0.225194 0.0999319,0.37987 0,0.147478 -0.0294356,0.274858 -0.087795,0.382146 -0.0712695,0.131556 -0.168359,0.197522 -0.291274,0.197522 -0.100966,0 -0.183338,-0.0413275 -0.247115,-0.124353 -0.0637826,-0.0830252 -0.100188,-0.192965 -0.109226,-0.329825zm1.56817 -0.802967l-0.135308 0.0155454c-0.0121369,-0.0784786 -0.0291797,-0.135722 -0.0513898,-0.170978 -0.0369225,-0.0572486 -0.0823664,-0.0856824 -0.136337,-0.0856824 -0.0433802,0 -0.0813373,0.0178215 -0.114132,0.0534535 -0.042863,0.045874 -0.0766927,0.112978 -0.101478,0.200931 -0.0245351,0.0879584 -0.0374452,0.213444 -0.0384743,0.376461 0.0327897,-0.0731698 0.0728158,-0.127761 0.120323,-0.163399 0.0472571,-0.0352563 0.0970951,-0.0530778 0.148997,-0.0530778 0.0908932,0 0.168103,0.0489069 0.23188,0.147096 0.0637826,0.0981949 0.0957992,0.224818 0.0957992,0.380251 0,0.102366 -0.0152351,0.197141 -0.0451825,0.285094 -0.0299583,0.0875772 -0.0712695,0.155057 -0.123688,0.201688 -0.0524189,0.0466363 -0.111813,0.0697612 -0.178432,0.0697612 -0.113615,0 -0.20606,-0.0610383 -0.277586,-0.183872 -0.0717867,-0.122452 -0.107419,-0.324521 -0.107419,-0.605826 0,-0.314661 0.0395034,-0.543268 0.118782,-0.686194 0.0689445,-0.124347 0.161901,-0.186905 0.279132,-0.186905 0.0870164,0 0.158547,0.0360186 0.21432,0.10805 0.0557785,0.0716506 0.0890909,0.170978 0.100193,0.297601zm-0.55595 0.701739c0,0.0689989 0.0100678,0.134965 0.0299529,0.197898 0.0198851,0.0629332 0.0477689,0.110702 0.0834064,0.143688 0.0358934,0.0329803 0.073589,0.0496638 0.112842,0.0496638 0.0575808,0 0.106907,-0.0341238 0.148218,-0.10236 0.0413166,-0.0682421 0.0619749,-0.160747 0.0619749,-0.277515 0,-0.112597 -0.0203969,-0.201307 -0.0611962,-0.266135 -0.0407993,-0.064828 -0.0921891,-0.0970569 -0.154159,-0.0970569 -0.061719,0 -0.113877,0.0322289 -0.156739,0.0970569 -0.0428684,0.064828 -0.0642999,0.149748 -0.0642999,0.25476z"/>
 </g>
</svg>
