<?xml version="1.0" encoding="UTF-8"?>
<!DOCTYPE svg PUBLIC "-//W3C//DTD SVG 1.1//EN" "http://www.w3.org/Graphics/SVG/1.1/DTD/svg11.dtd">
<!-- Creator: CorelDRAW -->
<svg xmlns="http://www.w3.org/2000/svg" xml:space="preserve" width="67.881mm" height="67.881mm" style="shape-rendering:geometricPrecision; text-rendering:geometricPrecision; image-rendering:optimizeQuality; fill-rule:evenodd; clip-rule:evenodd"
viewBox="0 0 4.23981 4.23981"
 xmlns:xlink="http://www.w3.org/1999/xlink">
 <defs>
  <style type="text/css">
   <![CDATA[
    .str0 {stroke:#1F1A17;stroke-width:0.0110179}
    .fil0 {fill:#DA251D}
    .fil1 {fill:white;fill-rule:nonzero}
   ]]>
  </style>
 </defs>
 <g id="Capa_x0020_1">
  <metadata id="CorelCorpID_0Corel-Layer"/>
  <rect class="fil0 str0" x="0.00550977" y="0.00551045" width="4.22879" height="4.22879" rx="0.196672" ry="0.196672"/>
  <path class="fil1" d="M1.34076 3.04186l-0.156099 0 0 -1.4612c-0.0376194,0.0526221 -0.0867875,0.105244 -0.147804,0.15786 -0.0613165,0.0526221 -0.116112,0.0921965 -0.164693,0.118292l0 -0.221356c0.0873808,-0.0604483 0.1638,-0.133507 0.229264,-0.219183 0.065164,-0.0861067 0.111671,-0.169165 0.138916,-0.250057l0.100416 0 0 1.87565zm0.423575 -0.431839l0.150178 -0.0204367c0.0127355,0.103502 0.037026,0.178734 0.0728653,0.225704 0.0358393,0.0465323 0.0817532,0.0700171 0.138036,0.0700171 0.0479814,0 0.0900416,-0.0160958 0.126174,-0.0487122 0.0361453,-0.0321791 0.0657574,-0.0752325 0.0888674,-0.12916 0.0233973,-0.0539213 0.0426473,-0.12698 0.0583497,-0.218308 0.0154025,-0.0917593 0.0234036,-0.185261 0.0234036,-0.280499 0,-0.00999977 -0.000299806,-0.0256584 -0.000893171,-0.0456579 -0.0313921,0.0726217 -0.0740457,0.132202 -0.127955,0.177429 -0.0542086,0.0456641 -0.112858,0.0682745 -0.175655,0.0682745 -0.10545,0 -0.194605,-0.0560949 -0.26747,-0.168297 -0.0728653,-0.112202 -0.109298,-0.259625 -0.109298,-0.443144 0,-0.189608 0.0379129,-0.341816 0.114039,-0.457497 0.0761256,-0.115675 0.171501,-0.173519 0.286133,-0.173519 0.0826402,0 0.158172,0.0330536 0.226897,0.0982863 0.0684181,0.0652327 0.120547,0.158728 0.156099,0.279625 0.0355395,0.120903 0.0533092,0.296158 0.0533092,0.525778 0,0.238314 -0.0174762,0.428354 -0.0527221,0.570124 -0.0355395,0.14134 -0.087968,0.248757 -0.157579,0.322685 -0.0699047,0.0739271 -0.151358,0.110897 -0.24526,0.110897 -0.099523,0 -0.180683,-0.0404488 -0.243773,-0.121771 -0.0630966,-0.0808851 -0.10101,-0.194824 -0.113745,-0.341816zm0.639504 -0.824534c0,-0.131334 -0.0236971,-0.236141 -0.071385,-0.313116 -0.0479814,-0.0774061 -0.105151,-0.116112 -0.172388,-0.116112 -0.0693113,0 -0.129735,0.0417479 -0.181276,0.124813 -0.0515416,0.0834959 -0.0773124,0.191345 -0.0773124,0.323553 0,0.119154 0.0245841,0.215698 0.0734649,0.290062 0.0488683,0.0743643 0.108998,0.111334 0.180683,0.111334 0.0725655,0 0.131808,-0.0369698 0.178316,-0.111334 0.0467947,-0.0743643 0.0698984,-0.177429 0.0698984,-0.3092zm1.14661 1.03589l0 0.220482 -0.840924 0c-0.00118673,-0.0552329 0.00474068,-0.108286 0.0180695,-0.159166 0.0213237,-0.0843703 0.0556826,-0.166998 0.102777,-0.248751 0.0474005,-0.0813223 0.115525,-0.175692 0.20438,-0.282673 0.138335,-0.166561 0.231937,-0.298332 0.280512,-0.395743 0.0485748,-0.0969809 0.0728653,-0.189177 0.0728653,-0.275715 0,-0.0908911 -0.0222106,-0.167429 -0.0663507,-0.230051 -0.0444337,-0.0621909 -0.10219,-0.0935019 -0.173281,-0.0935019 -0.0752325,0 -0.135362,0.0330536 -0.180383,0.0995854 -0.0453206,0.0661071 -0.0681308,0.157866 -0.0687242,0.274847l-0.16054 -0.0239157c0.0109554,-0.17613 0.0524285,-0.310074 0.124107,-0.40227 0.0716848,-0.0921902 0.168247,-0.138292 0.289094,-0.138292 0.12204,0 0.218602,0.0500113 0.289693,0.149166 0.071385,0.0995917 0.106931,0.222662 0.106931,0.369648 0,0.0748015 -0.0103683,0.148298 -0.0313984,0.220488 -0.0207366,0.0721907 -0.0553953,0.148291 -0.103677,0.227877 -0.0482812,0.0800169 -0.128548,0.189608 -0.240813,0.328768 -0.0936018,0.115681 -0.153732,0.193962 -0.180389,0.235272 -0.0266577,0.0408797 -0.0485748,0.0821905 -0.0660509,0.123945l0.624102 0z"/>
 </g>
</svg>
