<?xml version="1.0" encoding="UTF-8"?>
<!DOCTYPE svg PUBLIC "-//W3C//DTD SVG 1.1//EN" "http://www.w3.org/Graphics/SVG/1.1/DTD/svg11.dtd">
<!-- Creator: CorelDRAW -->
<svg xmlns="http://www.w3.org/2000/svg" xml:space="preserve" width="67.881mm" height="67.881mm" style="shape-rendering:geometricPrecision; text-rendering:geometricPrecision; image-rendering:optimizeQuality; fill-rule:evenodd; clip-rule:evenodd"
viewBox="0 0 6.14892 6.14892"
 xmlns:xlink="http://www.w3.org/1999/xlink">
 <defs>
  <style type="text/css">
   <![CDATA[
    .str0 {stroke:#1F1A17;stroke-width:0.015979}
    .fil0 {fill:#00923F}
    .fil1 {fill:white;fill-rule:nonzero}
   ]]>
  </style>
 </defs>
 <g id="Capa_x0020_1">
  <metadata id="CorelCorpID_0Corel-Layer"/>
  <rect class="fil0 str0" x="0.00799072" y="0.0079917" width="6.13294" height="6.13294" rx="0.28523" ry="0.28523"/>
  <path class="fil1" d="M1.2634 3.78526l0.31977 -0.029639c0.0271208,0.150106 0.0788351,0.259215 0.155152,0.327334 0.0763169,0.0674849 0.174075,0.101544 0.293908,0.101544 0.102169,0 0.19173,-0.0233434 0.268672,-0.0706463 0.0769509,-0.0466688 0.140015,-0.109108 0.189211,-0.187318 0.0498301,-0.078201 0.0908193,-0.184157 0.124254,-0.316608 0.0327913,-0.133077 0.0498211,-0.268681 0.0498211,-0.406803 0,-0.0145025 -0.000634087,-0.0372118 -0.0018932,-0.0662168 -0.0668508,0.105322 -0.15767,0.19173 -0.272458,0.257321 -0.115422,0.0662258 -0.240301,0.0990172 -0.374011,0.0990172 -0.22453,0 -0.414367,-0.0813533 -0.569518,-0.244078 -0.155152,-0.162725 -0.232728,-0.37653 -0.232728,-0.642683 0,-0.274985 0.0807283,-0.495729 0.242819,-0.663499 0.162091,-0.167761 0.36518,-0.251651 0.609258,-0.251651 0.175968,0 0.336791,0.0479369 0.48312,0.142543 0.145686,0.0946057 0.256687,0.230201 0.332379,0.405535 0.0756828,0.175343 0.11352,0.429512 0.11352,0.762525 0,0.345622 -0.0372118,0.621233 -0.112261,0.82684 -0.0756828,0.204982 -0.187318,0.360768 -0.335531,0.467983 -0.148847,0.107215 -0.322288,0.160832 -0.522225,0.160832 -0.211912,0 -0.384728,-0.0586621 -0.519063,-0.176602 -0.134345,-0.117306 -0.215073,-0.282549 -0.242194,-0.495729zm1.36168 -1.19581c0,-0.190471 -0.0504552,-0.34247 -0.152,-0.454106 -0.102169,-0.112261 -0.223896,-0.168395 -0.367064,-0.168395 -0.147588,0 -0.276244,0.0605462 -0.385987,0.181014 -0.109742,0.121092 -0.164618,0.277503 -0.164618,0.469242 0,0.172807 0.0523484,0.312822 0.15642,0.420671 0.104063,0.107849 0.232094,0.161466 0.384728,0.161466 0.154518,0 0.280656,-0.0536166 0.379682,-0.161466 0.0996422,-0.107849 0.148838,-0.257321 0.148838,-0.448426zm2.41874 -0.223271l-0.330486 0.0258617c-0.029639,-0.130558 -0.0712713,-0.225789 -0.125513,-0.284442 -0.0901852,-0.0952398 -0.201187,-0.142543 -0.333004,-0.142543 -0.105956,0 -0.198668,0.0296481 -0.278772,0.0889261 -0.104697,0.0763169 -0.187318,0.187952 -0.247864,0.334272 -0.0599212,0.146329 -0.0914534,0.355088 -0.0939716,0.626287 0.0800942,-0.121727 0.177852,-0.212546 0.293899,-0.271833 0.115422,-0.058653 0.237148,-0.0883011 0.36392,-0.0883011 0.222003,0 0.41058,0.0813624 0.566366,0.244712 0.155786,0.163359 0.233987,0.374011 0.233987,0.632592 0,0.170298 -0.0372118,0.327968 -0.110367,0.474288 -0.0731645,0.145695 -0.174075,0.257955 -0.302106,0.335531 -0.128031,0.077585 -0.273092,0.116056 -0.435817,0.116056 -0.277503,0 -0.503302,-0.101544 -0.678002,-0.305892 -0.175334,-0.203714 -0.262367,-0.539879 -0.262367,-1.00786 0,-0.523475 0.0964899,-0.903791 0.290122,-1.14156 0.168395,-0.206866 0.395444,-0.310938 0.681779,-0.310938 0.212546,0 0.387255,0.0599212 0.523484,0.179754 0.136229,0.119199 0.217591,0.284442 0.244712,0.495095zm-1.3579 1.16743c0,0.114788 0.0245935,0.22453 0.0731645,0.329227 0.048562,0.104697 0.116672,0.184166 0.203714,0.239042 0.087667,0.0548666 0.179745,0.0826215 0.27561,0.0826215 0.140649,0 0.261117,-0.0567689 0.362027,-0.170288 0.10091,-0.113529 0.151366,-0.267421 0.151366,-0.461678 0,-0.187318 -0.0498211,-0.334897 -0.149472,-0.442746 -0.0996512,-0.107849 -0.225164,-0.161466 -0.37653,-0.161466 -0.150741,0 -0.278138,0.0536166 -0.382834,0.161466 -0.104697,0.107849 -0.157045,0.249124 -0.157045,0.423823z"/>
 </g>
</svg>
