<?xml version="1.0" encoding="UTF-8"?>
<!DOCTYPE svg PUBLIC "-//W3C//DTD SVG 1.1//EN" "http://www.w3.org/Graphics/SVG/1.1/DTD/svg11.dtd">
<!-- Creator: CorelDRAW -->
<svg xmlns="http://www.w3.org/2000/svg" xml:space="preserve" width="67.881mm" height="67.881mm" style="shape-rendering:geometricPrecision; text-rendering:geometricPrecision; image-rendering:optimizeQuality; fill-rule:evenodd; clip-rule:evenodd"
viewBox="0 0 7.92212 7.92212"
 xmlns:xlink="http://www.w3.org/1999/xlink">
 <defs>
  <style type="text/css">
   <![CDATA[
    .str0 {stroke:#1F1A17;stroke-width:0.0205869}
    .fil0 {fill:#0093DD}
    .fil1 {fill:white;fill-rule:nonzero}
   ]]>
  </style>
 </defs>
 <g id="Capa_x0020_1">
  <metadata id="CorelCorpID_0Corel-Layer"/>
  <rect class="fil0 str0" x="0.010295" y="0.0102963" width="7.90153" height="7.90153" rx="0.367484" ry="0.367484"/>
  <path class="fil1" d="M3.78676 3.04853l-0.42579 0.0333196c-0.0381862,-0.168208 -0.0918243,-0.290901 -0.161708,-0.366468 -0.116192,-0.122705 -0.259204,-0.183649 -0.429034,-0.183649 -0.136511,0 -0.25596,0.0381979 -0.359163,0.11457 -0.134889,0.0983248 -0.241336,0.242153 -0.319343,0.430668 -0.077201,0.188527 -0.117826,0.457487 -0.121071,0.806893 0.103191,-0.156829 0.229141,-0.273839 0.378653,-0.350223 0.148707,-0.0755671 0.305536,-0.113765 0.468866,-0.113765 0.286023,0 0.528981,0.104825 0.729692,0.315281 0.200711,0.210468 0.301463,0.481867 0.301463,0.815016 0,0.219407 -0.0479428,0.422546 -0.142195,0.611061 -0.0942634,0.18771 -0.224274,0.332344 -0.389226,0.432291 -0.164952,0.0999587 -0.351845,0.149524 -0.561496,0.149524 -0.357529,0 -0.648442,-0.130827 -0.873521,-0.394104 -0.225896,-0.26246 -0.338027,-0.695568 -0.338027,-1.29851 0,-0.674432 0.124315,-1.16442 0.373786,-1.47076 0.216956,-0.266521 0.50948,-0.400605 0.878387,-0.400605 0.273839,0 0.49893,0.077201 0.674444,0.231591 0.175514,0.153573 0.280339,0.366468 0.315281,0.637868zm-1.74948 1.50408c0,0.14789 0.0316857,0.289279 0.0942634,0.424168 0.0625661,0.134889 0.150317,0.237275 0.26246,0.307975 0.112948,0.0706888 0.23158,0.106448 0.35509,0.106448 0.181209,0 0.336417,-0.0731396 0.466427,-0.219396 0.13001,-0.146268 0.195016,-0.344539 0.195016,-0.594815 0,-0.241336 -0.0641883,-0.431474 -0.192577,-0.570424 -0.128388,-0.13895 -0.290096,-0.208028 -0.485112,-0.208028 -0.19421,0 -0.358346,0.0690783 -0.493234,0.208028 -0.134889,0.13895 -0.202333,0.320965 -0.202333,0.546044zm3.6111 1.13111l0 -0.835335 -1.51383 0 0 -0.393287 1.59265 -2.2614 0.350223 0 0 2.2614 0.471294 0 0 0.393287 -0.471294 0 0 0.835335 -0.429046 0zm0 -1.22862l0 -1.57315 -1.0921 1.57315 1.0921 0z"/>
 </g>
</svg>
