<?xml version="1.0" encoding="UTF-8"?>
<!DOCTYPE svg PUBLIC "-//W3C//DTD SVG 1.1//EN" "http://www.w3.org/Graphics/SVG/1.1/DTD/svg11.dtd">
<!-- Creator: CorelDRAW -->
<svg xmlns="http://www.w3.org/2000/svg" xml:space="preserve" width="67.7046mm" height="67.7046mm" style="shape-rendering:geometricPrecision; text-rendering:geometricPrecision; image-rendering:optimizeQuality; fill-rule:evenodd; clip-rule:evenodd"
viewBox="0 0 28.3861 28.3861"
 xmlns:xlink="http://www.w3.org/1999/xlink">
 <defs>
  <style type="text/css">
   <![CDATA[
    .fil3 {fill:white}
    .fil0 {fill:url(#id0)}
    .fil1 {fill:url(#id1);fill-rule:nonzero}
    .fil2 {fill:url(#id2);fill-rule:nonzero}
   ]]>
  </style>
  <linearGradient id="id0" gradientUnits="userSpaceOnUse" x1="14.1931" y1="28.3861" x2="14.1931" y2="0">
   <stop offset="0" style="stop-color:#09253F"/>
   <stop offset="1" style="stop-color:#003F72"/>
  </linearGradient>
  <linearGradient id="id1" gradientUnits="userSpaceOnUse" x1="7.05571" y1="20.0431" x2="10.9778" y2="5.40612">
   <stop offset="0" style="stop-color:#C2C1C1"/>
   <stop offset="0.380392" style="stop-color:#DEDEDD"/>
   <stop offset="0.560784" style="stop-color:white"/>
   <stop offset="1" style="stop-color:white"/>
  </linearGradient>
  <linearGradient id="id2" gradientUnits="userSpaceOnUse" x1="12.854" y1="27.3707" x2="22.7813" y2="10.176">
   <stop offset="0" style="stop-color:#EF9B11"/>
   <stop offset="0.541176" style="stop-color:#EF9B11"/>
   <stop offset="0.678431" style="stop-color:#FACF00"/>
   <stop offset="1" style="stop-color:#F8C300"/>
  </linearGradient>
 </defs>
 <g id="Capa_x0020_1">
  <metadata id="CorelCorpID_0Corel-Layer"/>
  <rect class="fil0" y="1.02015e-005" width="28.3861" height="28.3861" rx="1.32018" ry="1.32018"/>
  <path class="fil1" d="M12.3854 14.759l0 1.29817c-0.401152,0.034757 -0.782095,0.0607514 -1.14585,0.0781508 -0.360357,0.0174414 -0.69514,0.026204 -1.00011,0.026204 -0.692079,0 -1.27658,-0.040459 -1.75638,-0.11622 -0.479596,-0.075761 -0.872279,-0.18913 -1.17754,-0.331386 -0.305266,-0.145233 -0.543869,-0.319982 -0.715264,-0.523828 -0.168628,-0.206026 -0.290718,-0.435993 -0.366395,-0.691786 -0.0724488,-0.252858 -0.119281,-0.532088 -0.133787,-0.828717 -0.0173995,-0.29642 -0.0231853,-0.613467 -0.0203343,-0.944853 -0.002851,-0.331764 0.00293485,-0.648392 0.0203343,-0.945231 0.0145065,-0.296504 0.0613383,-0.572631 0.133787,-0.825782 0.0756772,-0.252816 0.197767,-0.482699 0.366395,-0.686084 0.171395,-0.200744 0.409998,-0.375032 0.715264,-0.517665 0.305266,-0.145149 0.697949,-0.252942 1.17754,-0.331386 0.479806,-0.0758449 1.0643,-0.113662 1.75638,-0.113662 0.325559,0 0.683275,0.0117813 1.07579,0.0350505 0.392683,0.0231853 0.805532,0.0612545 1.23595,0.110518 0.433058,0.0523242 0.869344,0.119155 1.31389,0.200366 0.445049,0.0816307 0.881251,0.180367 1.31175,0.299564l0 -2.84383c-0.767672,-0.183093 -1.55861,-0.3256 -2.37262,-0.424337 -0.811318,-0.0988625 -1.63718,-0.151061 -2.47751,-0.151061l-0.628393 0c-1.06388,0.00272522 -1.98555,0.101672 -2.76215,0.293485 -0.776183,0.191981 -1.4247,0.465425 -1.95138,0.817229 -0.525925,0.351763 -0.944853,0.767463 -1.25599,1.2445 -0.310884,0.476745 -0.534855,1.00334 -0.671577,1.57597 -0.133787,0.570073 -0.200534,1.17461 -0.197683,1.8085l0 0.90712c-0.002851,0.634011 0.0638958,1.23872 0.197683,1.80879 0.136722,0.57284 0.360693,1.09914 0.671577,1.57627 0.311136,0.476661 0.730064,0.892236 1.25599,1.24433 0.526679,0.351763 1.1752,0.622188 1.95138,0.81702 0.776603,0.191688 1.69827,0.290843 2.76215,0.293569l0.628393 0c0.773165,-0.00234788 1.53966,-0.0400397 2.29987,-0.112279l2.48154 -4.97436c-0.422576,-0.609652 -1.12543,-1.09072 -1.93767,-1.12417l-0.596697 0 -0.188333 0 -1.96782 0 1.10413 2.05184 0.863684 0z"/>
  <path class="fil2" d="M20.961 18.4559l-2.20365 -4.88262 -1.77952 3.99517 2.84982 0 1.13335 0.887456zm1.73923 3.99764l-0.994452 -2.26797 -5.87938 0 -3.51129 6.59687 -0.75283 0c-0.701764,-0.0300612 -1.45371,-1.62712 -0.822638,-3.20548l6.44753 -12.8126 3.14037 0 5.19904 10.9913 0 0.697907 -2.82634 0z"/>
  <polygon class="fil3" points="21.34,3.64005 19.1776,4.56407 20.1972,5.9341 17.3842,2.96248 11.1936,1.60368 15.0573,4.95096 12.9804,3.44128 11.3513,2.96189 16.4919,6.19383 16.5399,6.23538 14.6082,12.9546 17.5665,9.86205 16.9111,7.16531 17.4828,8.59772 20.6425,6.40451 21.3255,3.92578 21.2844,4.73844 22.8278,4.11063 23.0936,4.33238 23.0926,4.00297 21.4128,3.6089 "/>
 </g>
</svg>
