<?xml version="1.0" encoding="UTF-8"?>
<!DOCTYPE svg PUBLIC "-//W3C//DTD SVG 1.1//EN" "http://www.w3.org/Graphics/SVG/1.1/DTD/svg11.dtd">
<!-- Creator: CorelDRAW -->
<svg xmlns="http://www.w3.org/2000/svg" xml:space="preserve" width="67.881mm" height="67.881mm" style="shape-rendering:geometricPrecision; text-rendering:geometricPrecision; image-rendering:optimizeQuality; fill-rule:evenodd; clip-rule:evenodd"
viewBox="0 0 3.26385 3.26385"
 xmlns:xlink="http://www.w3.org/1999/xlink">
 <defs>
  <style type="text/css">
   <![CDATA[
    .str0 {stroke:#1F1A17;stroke-width:0.00848164}
    .fil0 {fill:#E77817}
    .fil1 {fill:white;fill-rule:nonzero}
   ]]>
  </style>
 </defs>
 <g id="Capa_x0020_1">
  <metadata id="CorelCorpID_0Corel-Layer"/>
  <rect class="fil0 str0" x="0.00424147" y="0.00424199" width="3.25536" height="3.25536" rx="0.1514" ry="0.1514"/>
  <path class="fil1" d="M0.579964 1.96201l0.120166 -0.0234351c0.0139053,0.100097 0.0373933,0.172075 0.0704544,0.216267 0.0332919,0.0441872 0.0736566,0.0662857 0.121306,0.0662857 0.0565539,0 0.104439,-0.0287914 0.143428,-0.0863743 0.0387636,-0.0575829 0.0583762,-0.128888 0.0583762,-0.213921 0,-0.081018 -0.0180163,-0.147972 -0.054044,-0.20053 -0.0362537,-0.0525583 -0.0820854,-0.0790081 -0.137726,-0.0790081 -0.0228004,0 -0.0510726,0.00669781 -0.0848212,0.019752l0.0134533 -0.155002c0.00798159,0.00134148 0.0143621,0.00200982 0.0193818,0.00200982 0.0510726,0 0.097135,-0.019752 0.138182,-0.0589195 0.0410379,-0.0391723 0.061564,-0.0997651 0.061564,-0.181451 0,-0.0646124 -0.0150496,-0.118507 -0.0449229,-0.16069 -0.0298685,-0.0425188 -0.0684061,-0.0639441 -0.115603,-0.0639441 -0.0467452,0 -0.0857396,0.0217619 -0.116748,0.0646124 -0.0312436,0.0431871 -0.0513082,0.108131 -0.0601985,0.194506l-0.120166 -0.0314696c0.0145928,-0.118512 0.0481107,-0.210238 0.100102,-0.275187 0.0522169,-0.0649442 0.116974,-0.0977553 0.194501,-0.0977553 0.0533565,0 0.102612,0.0170739 0.14753,0.0505533 0.0449181,0.0338112 0.0793495,0.0796765 0.103294,0.137928 0.023714,0.0582512 0.035797,0.119849 0.035797,0.185466 0,0.0619343 -0.0114002,0.118507 -0.0342006,0.169729 -0.0228004,0.050885 -0.0563231,0.091394 -0.100789,0.121527 0.0579194,0.0194155 0.102842,0.0602562 0.13499,0.12219 0.0319264,0.0615977 0.0478895,0.138933 0.0478895,0.231663 0,0.125542 -0.0310176,0.232 -0.0934904,0.319379 -0.0622516,0.0873744 -0.141149,0.130898 -0.236457,0.130898 -0.0859656,0 -0.157338,-0.0374991 -0.214113,-0.112819 -0.0567751,-0.0749933 -0.0891582,-0.172412 -0.097135,-0.292261zm0.945371 -0.400056c-0.049933,-0.0267816 -0.0868743,-0.064949 -0.111045,-0.114829 -0.02394,-0.0495484 -0.0360277,-0.109136 -0.0360277,-0.178437 0,-0.104785 0.0255411,-0.192496 0.0768445,-0.263801 0.0513034,-0.0713102 0.119257,-0.107131 0.20431,-0.107131 0.085504,0 0.154367,0.0364941 0.206584,0.109473 0.0519909,0.0729835 0.077984,0.161699 0.077984,0.266484 0,0.0666174 -0.011857,0.124532 -0.035571,0.17408 -0.02394,0.0492118 -0.0599677,0.0873792 -0.10854,0.114161 0.0599725,0.0287914 0.105804,0.0749885 0.137269,0.139264 0.0312388,0.0639441 0.0469712,0.140606 0.0469712,0.229322 0,0.123195 -0.0296377,0.226307 -0.0886966,0.310003 -0.059285,0.0836913 -0.137269,0.125542 -0.233952,0.125542 -0.0966782,0 -0.174436,-0.0418505 -0.233721,-0.125878 -0.059285,-0.0840279 -0.0889274,-0.188813 -0.0889274,-0.314354 0,-0.093399 0.0161892,-0.171739 0.0485723,-0.23501 0.0321475,-0.0629392 0.0782052,-0.106126 0.137947,-0.128888zm-0.024166 -0.29929c0,0.0679589 0.0150448,0.123532 0.0446921,0.166719 0.0298685,0.0431823 0.0686321,0.0649442 0.116291,0.0649442 0.0462836,0 0.0843693,-0.0214253 0.114007,-0.0642758 0.0296473,-0.0428506 0.0442401,-0.0954137 0.0442401,-0.157343 0,-0.064949 -0.0150544,-0.119181 -0.0456057,-0.163373 -0.030556,-0.0441921 -0.0684061,-0.0662857 -0.114012,-0.0662857 -0.0458316,0 -0.0839125,0.0217619 -0.114238,0.0646124 -0.03033,0.0431871 -0.0453749,0.0950771 -0.0453749,0.155002zm-0.0387636 0.664193c0,0.0502167 0.00820758,0.0990967 0.0243967,0.145962 0.0161892,0.047202 0.0403599,0.0836961 0.0725123,0.109473 0.0321475,0.0257767 0.0665838,0.0388357 0.10352,0.0388357 0.0574626,0 0.104891,-0.0271182 0.142284,-0.0816863 0.0373933,-0.0542364 0.0560971,-0.1232 0.0560971,-0.206891 0,-0.0850328 -0.0191558,-0.155338 -0.0576934,-0.210911 -0.0385376,-0.055573 -0.0868743,-0.0833595 -0.144789,-0.0833595 -0.0565539,0 -0.103299,0.0274548 -0.140466,0.0823546 -0.0371673,0.0552413 -0.0558615,0.123869 -0.0558615,0.206223zm1.02404 0.414788l0 -0.344151 -0.424803 0 0 -0.162031 0.446921 -0.931678 0.0982794 0 0 0.931678 0.132249 0 0 0.162031 -0.132249 0 0 0.344151 -0.120397 0zm0 -0.506182l0 -0.648124 -0.306459 0.648124 0.306459 0z"/>
 </g>
</svg>
